# xmcd CD database file
#
# Track frame offsets:
#	150
#	17930
#	40537
#	53950
#	71900
#	91425
#	103037
#	118580
#	154157
#	184315
#	208820
#
# Disc length: 3073 seconds
#
# Revision: 0
# Processed by: cddbd v1.5PL3 Copyright (c) Steve Scherf et al.
# Submitted via: CDex 1.51
#
DISCID=9d0bff0b
DTITLE=Tom Split - Side by Side
DYEAR=1991
DGENRE=Jazz
TTITLE0=Seven Pages
TTITLE1=Side by Side
TTITLE2=Untitled
TTITLE3=The First Time
TTITLE4=A Gift
TTITLE5=Susan
TTITLE6=Amanda
TTITLE7=Resurrection
TTITLE8=Softly
TTITLE9=Fantasy
TTITLE10=You're the One
EXTD=YEAR: 1991
EXTT0=
EXTT1=
EXTT2=
EXTT3=
EXTT4=
EXTT5=
EXTT6=
EXTT7=
EXTT8=
EXTT9=
EXTT10=
PLAYORDER=
